<svg id="Capa_1" data-name="Capa 1" xmlns="http://www.w3.org/2000/svg" xmlns:xlink="http://www.w3.org/1999/xlink" viewBox="0 0 792 792"><defs><style>.cls-1{fill:none;}.cls-2{clip-path:url(#clip-path);}.cls-3{fill:#fe4f0d;}.cls-4,.cls-5,.cls-6{fill:#fff;}.cls-5{font-size:64.38px;}.cls-5,.cls-6{font-family:BaskOldFace, Baskerville Old Face;}.cls-6{font-size:51.52px;}.cls-7{letter-spacing:-0.01em;}.cls-8{letter-spacing:0em;}.cls-9{letter-spacing:0em;}</style><clipPath id="clip-path"><rect class="cls-1" width="792" height="792"/></clipPath></defs><title>logo</title><rect width="792" height="792"/><g class="cls-2"><path class="cls-3" d="M162.69,123.86V279.41L233,353.62V200.91l-70.32-77"/><polygon class="cls-4" points="399.08 533.13 399.08 542.12 165.69 281.41 159.69 274.71 136.27 248.54 136.27 239.89 136.44 239.74 159.69 265.71 165.69 272.41 399.08 533.13"/><path class="cls-4" d="M165.69,117.24l-3-3.35-3-3.35L136.27,84.38v9l23.42,26.16,6,6.7,42.44,47.41.35.4.34.37L401,389.1v-9Z"/><path class="cls-4" d="M236,195.61l-3-3.35-3-3.35-64.32-71.85-3-3.35-3-3.35L136.27,84.2v9.36l23.42,26.16,3,3.35,3,3.35,33.7,37.65.15.17,30.47,34,3,3.35,3,3.36L400.92,389.19l.21.24v-9.38ZM165.69,126v.19l42.44,47.41.35.4.34.37,8.37,9.16ZM236,196l-6-6.7-64.32-71.85-3-3.35-3-3.35L136.27,84.57v8.61l23.42,26.16,6,6.7,51.5,57.53.27.3.08.09L230,197.9l6,6.7L400.88,388.78v-8.63ZM165.69,126v.19l42.44,47.41.35.4.34.37,8.37,9.16Z"/><polygon class="cls-4" points="165.69 82.58 165.69 560.08 159.69 560.08 159.69 76.07 162.69 79.33 165.69 82.58"/><polygon class="cls-4" points="236.01 158.84 236.01 559.59 230.01 559.59 230.01 152.33 233.01 155.58 236.01 158.84"/></g><text class="cls-5" transform="translate(57.25 660.82) scale(1 1.08)">INDUSTRIA METÁLICA</text><text class="cls-6" transform="translate(243.02 715.84) scale(1.05 1)">M<tspan class="cls-7" x="45.94" y="0">O</tspan><tspan class="cls-8" x="87.26" y="0">S</tspan><tspan class="cls-9" x="113.85" y="0">QUERA</tspan></text><g class="cls-2"><path class="cls-4" d="M647,555.26l-.36-233.17q-.17-99.67-.32-199.36L400.67,397.53,244.77,226.28l-.25,119.77L399.1,521.12,565.68,328.55l.63,227Z"/><path class="cls-4" d="M669.52,554.64V560H543.19v-5.36c20.95-2.89,30.15-24.13,34.07-39.68h58.3c4,15,13.21,36.41,34,39.68"/></g></svg>