<svg id="Capa_1" data-name="Capa 1" xmlns="http://www.w3.org/2000/svg" xmlns:xlink="http://www.w3.org/1999/xlink" viewBox="0 0 332.3 99.95"><defs><style>.cls-1{fill:none;}.cls-2{font-size:20.12px;}.cls-2,.cls-3{font-family:BaskOldFace, Baskerville Old Face;}.cls-3{font-size:29.9px;}.cls-4{letter-spacing:-0.01em;}.cls-5{letter-spacing:0em;}.cls-6{clip-path:url(#clip-path);}.cls-7{fill:#fe4f0d;}.cls-8{fill:#fff;}</style><clipPath id="clip-path" transform="translate(-3.1 10.76)"><rect class="cls-1" x="3.1" y="-5.5" width="99.95" height="99.95"/></clipPath></defs><title>logo</title><text class="cls-2" transform="translate(110.37 43.53) scale(1 1.08)">INDUSTRIA METÁLICA</text><text class="cls-3" transform="translate(124.73 70.25) scale(1.05 1)">M<tspan class="cls-4" x="26.66" y="0">O</tspan><tspan class="cls-5" x="50.65" y="0">S</tspan><tspan x="66.08" y="0">QUERA</tspan></text><g class="cls-6"><path class="cls-7" d="M23.63,10.13V29.77l8.88,9.36V19.86l-8.88-9.73" transform="translate(-3.1 10.76)"/><polygon points="50.37 72.54 50.37 73.68 20.91 40.77 20.15 39.93 17.2 36.63 17.2 35.53 17.22 35.52 20.15 38.79 20.91 39.64 50.37 72.54"/><path class="cls-8" d="M24,9.3l-.38-.42-.38-.43L20.3,5.15V6.29l2.95,3.3.76.84,5.36,6,0,0,0,0,24.26,27.1V42.47Z" transform="translate(-3.1 10.76)"/><path d="M32.89,19.19l-.38-.42-.38-.43L24,9.28l-.38-.43-.38-.42L20.3,5.13V6.31l2.95,3.3.38.43.38.42,4.25,4.75,0,0,3.85,4.3.38.42.38.42L53.7,43.62l0,0V42.47ZM24,10.41v0l5.36,6,0,0,0,0,1.06,1.16Zm8.88,8.83-.76-.85L24,9.32l-.38-.42-.38-.42L20.3,5.18V6.26l2.95,3.3.76.85,6.5,7.26,0,0h0l1.57,1.76.76.84,20.8,23.25V42.48ZM24,10.41v0l5.36,6,0,0,0,0,1.06,1.16Z" transform="translate(-3.1 10.76)"/><polygon points="20.91 15.68 20.91 75.94 20.15 75.94 20.15 14.86 20.53 15.27 20.91 15.68"/><polygon points="29.79 25.3 29.79 75.88 29.03 75.88 29.03 24.48 29.41 24.89 29.79 25.3"/></g><path d="M84.75,64.58l0-29.43q0-12.57,0-25.16l-31,34.68L34,23.06l0,15.12L53.47,60.27l21-24.3.08,28.64Z" transform="translate(-3.1 10.76)"/><path d="M87.6,64.5v.68H71.65V64.5c2.65-.36,3.81-3,4.3-5h7.36c.5,1.9,1.67,4.6,4.29,5" transform="translate(-3.1 10.76)"/><rect class="cls-1" width="99.95" height="99.95"/></svg>